<svg width="20" height="20" viewBox="0 0 20 20" fill="none" xmlns="http://www.w3.org/2000/svg">
<path d="M5.8335 17.5C5.37517 17.5 4.98267 17.3367 4.656 17.01C4.32933 16.6833 4.16628 16.2911 4.16683 15.8333V5C3.93072 5 3.73267 4.92 3.57267 4.76C3.41267 4.6 3.33294 4.40223 3.3335 4.16667C3.3335 3.93056 3.4135 3.7325 3.5735 3.5725C3.7335 3.4125 3.93128 3.33278 4.16683 3.33334H7.50017C7.50017 3.09723 7.58017 2.89917 7.74017 2.73917C7.90017 2.57917 8.09794 2.49945 8.3335 2.5H11.6668C11.9029 2.5 12.101 2.58 12.261 2.74C12.421 2.9 12.5007 3.09778 12.5002 3.33334H15.8335C16.0696 3.33334 16.2677 3.41334 16.4277 3.57334C16.5877 3.73334 16.6674 3.93111 16.6668 4.16667C16.6668 4.40278 16.5868 4.60084 16.4268 4.76084C16.2668 4.92084 16.0691 5.00056 15.8335 5V15.8333C15.8335 16.2917 15.6702 16.6842 15.3435 17.0108C15.0168 17.3375 14.6246 17.5006 14.1668 17.5H5.8335ZM5.8335 5V15.8333H14.1668V5H5.8335ZM7.50017 13.3333C7.50017 13.5694 7.58017 13.7675 7.74017 13.9275C7.90017 14.0875 8.09794 14.1672 8.3335 14.1667C8.56961 14.1667 8.76767 14.0867 8.92767 13.9267C9.08767 13.7667 9.16739 13.5689 9.16683 13.3333V7.5C9.16683 7.26389 9.08683 7.06584 8.92683 6.90584C8.76683 6.74584 8.56905 6.66611 8.3335 6.66667C8.09739 6.66667 7.89933 6.74667 7.73933 6.90667C7.57933 7.06667 7.49961 7.26445 7.50017 7.5V13.3333ZM10.8335 13.3333C10.8335 13.5694 10.9135 13.7675 11.0735 13.9275C11.2335 14.0875 11.4313 14.1672 11.6668 14.1667C11.9029 14.1667 12.101 14.0867 12.261 13.9267C12.421 13.7667 12.5007 13.5689 12.5002 13.3333V7.5C12.5002 7.26389 12.4202 7.06584 12.2602 6.90584C12.1002 6.74584 11.9024 6.66611 11.6668 6.66667C11.4307 6.66667 11.2327 6.74667 11.0727 6.90667C10.9127 7.06667 10.8329 7.26445 10.8335 7.5V13.3333Z" fill="#666666"/>
</svg>
